<svg data-v-0dd9719b="" version="1.0" xmlns="http://www.w3.org/2000/svg" xmlns:xlink="http://www.w3.org/1999/xlink" width="100%" height="100%" viewBox="0 0 340.000000 250.000000" preserveAspectRatio="xMidYMid meet" color-interpolation-filters="sRGB" style="margin: auto;"> <rect data-v-0dd9719b="" x="0" y="0" width="100%" height="100%" fill="#fff" fill-opacity="1" class="background"></rect> <rect data-v-0dd9719b="" x="0" y="0" width="100%" height="100%" fill="url(#watermark)" fill-opacity="1" class="watermarklayer"></rect> <g data-v-0dd9719b="" fill="#333" class="icon-text-wrapper icon-svg-group iconsvg" transform="translate(72.41999816894531,90.3299446105957)"><g class="iconsvg-imagesvg" transform="translate(0,0)"><g><rect fill="#333" fill-opacity="0" stroke-width="2" x="0" y="0" width="59.99999999999999" height="69.34011325551832" class="image-rect"></rect> <svg x="0" y="0" width="59.99999999999999" height="69.34011325551832" filtersec="colorsb7060043373" class="image-svg-svg primary" style="overflow: visible;"><svg xmlns="http://www.w3.org/2000/svg" viewBox="0 0 86.52999877929688 100"><path fill="#2084f7" d="M20.82 87.16L0 75.28V25.04l20.82 12.33v49.79z"></path><path fill="#22cfee" d="M18.95 14.03L0 25.04l20.82 12.33 18.95-10.83-20.82-12.51z"></path><path fill="#23b0f1" d="M86.53 50.55l-.11 24.39L43.03 100l.14-24.56 43.36-24.89z"></path><path fill="#2084f7" d="M24.1 88.87L43.03 100l.14-24.56-19.02-10.58-.05 24.01z"></path><path fill="#22cfee" d="M22.41 12.17L43.06 0l43.28 25.04L65.92 37.2 22.41 12.17z"></path><path fill="#23b0f1" d="M86.37 46.98l-.03-21.94L65.92 37.2l.02 21.81 20.43-12.03z"></path><path fill="#22cfee" d="M60.79 60.12L43.27 70.23 25.75 60.12V39.88l17.52-10.11 17.52 10.11v20.24z"></path></svg></svg> <!----></g></g> <g transform="translate(67,10.460054397583008)"><g data-gra="path-name" fill-rule="" class="tp-name iconsvg-namesvg"><g transform="scale(1)"><g><path d="M13.98 5.22Q8.22 5.22 8.1 0.6L8.1 0.6Q8.1-0.96 8.67-3.09 9.24-5.22 10.2-8.22L10.2-8.22Q12.18-14.22 14.43-19.83 16.68-25.44 19.98-33.24L19.98-33.24 22.14-38.34Q16.2-38.28 12.45-37.95 8.7-37.62 4.56-36.9L4.56-36.9Q4.92-40.44 9-41.82 13.08-43.2 20.46-43.2L20.46-43.2Q25.32-43.2 32.52-42.48L32.52-42.48Q38.82-41.88 41.76-41.88L41.76-41.88Q39.36-39.6 35.37-38.97 31.38-38.34 25.8-38.34L25.8-38.34Q20.88-26.22 16.08-8.58L16.08-8.58Q14.7-3.48 14.25-1.26 13.8 0.96 13.8 3.48L13.8 3.48Q13.8 4.32 13.98 5.22L13.98 5.22ZM43.56 2.28Q41.7 2.28 40.92 0.69 40.14-0.9 40.02-3.72L40.02-3.72 40.08-5.16Q40.08-6.36 40.2-7.8L40.2-7.8Q37.86-3.54 35.52-0.87 33.18 1.8 30.72 1.8L30.72 1.8Q28.74 1.8 27.39-0.03 26.04-1.86 26.04-4.44L26.04-4.44Q26.04-6.66 27-9.9 27.96-13.14 29.25-15.54 30.54-17.94 31.5-17.94L31.5-17.94Q32.04-17.94 33.03-17.4 34.02-16.86 34.26-16.2L34.26-16.2Q33-14.4 31.68-10.92 30.36-7.44 30.36-4.92L30.36-4.92Q30.36-3.72 30.72-2.55 31.08-1.38 32.22-1.38L32.22-1.38Q35.28-1.38 40.8-12.12L40.8-12.12Q41.28-14.64 41.64-15.78 42-16.92 42.36-17.25 42.72-17.58 43.38-17.58L43.38-17.58Q44.52-17.58 45.15-17.13 45.78-16.68 45.78-15.84L45.78-15.84Q45.78-15.66 45.48-14.76L45.48-14.76Q44.88-12.84 44.52-9.87 44.16-6.9 44.16-3.9L44.16-3.9Q44.16-2.28 44.37-1.56 44.58-0.84 45.24-0.84L45.24-0.84Q46.8-0.84 49.35-4.35 51.9-7.86 54.06-12.3L54.06-12.3Q54.06-16.56 54.93-18.24 55.8-19.92 57.36-19.92L57.36-19.92Q58.68-19.92 59.34-19.05 60-18.18 60-17.34L60-17.34Q60-16.74 59.67-16.14 59.34-15.54 59.22-15.3L59.22-15.3Q58.02-12.9 58.02-9.96L58.02-9.96Q58.02-5.52 60.66-5.52L60.66-5.52Q61.8-5.52 62.91-6.54 64.02-7.56 65.28-10.08L65.28-10.08 66.42-9.18Q65.22-6.3 63.57-5.01 61.92-3.72 60.18-3.72L60.18-3.72Q58.32-3.72 56.91-5.07 55.5-6.42 54.66-8.7L54.66-8.7Q51.96-4.02 49.08-0.87 46.2 2.28 43.56 2.28L43.56 2.28ZM75.84-25.26Q74.58-25.26 73.71-25.86 72.84-26.46 72.84-27.6L72.84-27.6Q72.84-28.98 74.37-30.03 75.9-31.08 77.64-31.08L77.64-31.08Q80.22-31.08 80.22-28.86L80.22-28.86Q80.22-27.6 78.84-26.43 77.46-25.26 75.84-25.26L75.84-25.26ZM68.76 1.8Q66.24 1.8 64.86 0.3 63.48-1.2 63.48-3.54L63.48-3.54Q63.48-5.94 64.83-10.05 66.18-14.16 68.25-17.28 70.32-20.4 72.42-20.4L72.42-20.4Q73.2-20.4 73.71-19.95 74.22-19.5 74.22-18.66L74.22-18.66Q74.22-18.12 73.74-17.19 73.26-16.26 72.18-14.52L72.18-14.52Q70.26-11.34 69.15-8.91 68.04-6.48 68.04-4.32L68.04-4.32Q68.04-2.46 68.7-1.8 69.36-1.14 70.74-1.14L70.74-1.14Q75.48-1.14 80.16-10.32L80.16-10.32 81.06-9.36Q78.96-4.08 75.72-1.14 72.48 1.8 68.76 1.8L68.76 1.8ZM83.76 1.8Q81.12 1.8 79.92 0.06 78.72-1.68 78.72-4.56L78.72-4.56Q78.72-10.08 82.47-19.32 86.22-28.56 90.9-35.88 95.58-43.2 97.8-43.2L97.8-43.2Q98.82-43.2 99.54-41.61 100.26-40.02 100.32-38.4L100.32-38.4Q100.32-35.64 98.1-30.33 95.88-25.02 92.13-19.56 88.38-14.1 84.12-10.74L84.12-10.74Q83.46-7.02 83.46-5.1L83.46-5.1Q83.46-3 84.15-1.98 84.84-0.96 86.04-0.96L86.04-0.96Q88.14-0.96 90.51-3.75 92.88-6.54 94.74-10.5L94.74-10.5 96.18-9.72Q93.54-4.26 90.36-1.23 87.18 1.8 83.76 1.8L83.76 1.8ZM85.2-14.46Q88.44-17.94 91.29-22.62 94.14-27.3 95.85-31.5 97.56-35.7 97.56-37.74L97.56-37.74Q96.78-37.74 94.41-34.08 92.04-30.42 89.43-24.99 86.82-19.56 85.2-14.46L85.2-14.46ZM105.18-25.26Q103.92-25.26 103.05-25.86 102.18-26.46 102.18-27.6L102.18-27.6Q102.18-28.98 103.71-30.03 105.24-31.08 106.98-31.08L106.98-31.08Q109.56-31.08 109.56-28.86L109.56-28.86Q109.56-27.6 108.18-26.43 106.8-25.26 105.18-25.26L105.18-25.26ZM98.1 1.8Q95.58 1.8 94.2 0.3 92.82-1.2 92.82-3.54L92.82-3.54Q92.82-5.94 94.17-10.05 95.52-14.16 97.59-17.28 99.66-20.4 101.76-20.4L101.76-20.4Q102.54-20.4 103.05-19.95 103.56-19.5 103.56-18.66L103.56-18.66Q103.56-18.12 103.08-17.19 102.6-16.26 101.52-14.52L101.52-14.52Q99.6-11.34 98.49-8.91 97.38-6.48 97.38-4.32L97.38-4.32Q97.38-2.46 98.04-1.8 98.7-1.14 100.08-1.14L100.08-1.14Q104.82-1.14 109.5-10.32L109.5-10.32 110.4-9.36Q108.3-4.08 105.06-1.14 101.82 1.8 98.1 1.8L98.1 1.8ZM111.9 1.92Q109.44 1.92 108.33 0.3 107.22-1.32 107.22-3.72L107.22-3.72Q107.22-6.24 108.27-8.94 109.32-11.64 111-13.44 112.68-15.24 114.42-15.24L114.42-15.24Q115.14-15.24 116.28-14.76L116.28-14.76Q116.64-17.52 118.23-19.32 119.82-21.12 122.7-21.12L122.7-21.12Q125.1-21.12 126.24-19.77 127.38-18.42 127.38-16.26L127.38-16.26Q127.38-14.16 126.27-11.46 125.16-8.76 123.42-6.06L123.42-6.06Q124.14-5.7 125.1-5.7L125.1-5.7Q126.78-5.7 128.7-6.81 130.62-7.92 131.64-10.2L131.64-10.2 132.72-9.42Q131.46-6.54 129.33-5.04 127.2-3.54 124.92-3.54L124.92-3.54Q123.54-3.54 121.92-4.08L121.92-4.08Q119.7-1.44 117.06 0.24 114.42 1.92 111.9 1.92L111.9 1.92ZM121.38-7.32Q122.88-9.54 123.87-11.94 124.86-14.34 124.86-16.26L124.86-16.26Q124.86-18.9 123.18-18.9L123.18-18.9Q122.4-18.9 121.56-18.12 120.72-17.34 120.18-16.05 119.64-14.76 119.64-13.2L119.64-13.2Q119.64-11.82 120.12-10.05 120.6-8.28 121.38-7.32L121.38-7.32ZM114.06-1.14Q115.14-1.14 116.7-2.34 118.26-3.54 119.82-5.4L119.82-5.4Q116.4-8.4 116.22-14.22L116.22-14.22Q115.5-13.86 114.48-12 113.46-10.14 112.74-7.86 112.02-5.58 112.02-3.9L112.02-3.9Q112.02-1.14 114.06-1.14L114.06-1.14Z" transform="translate(-4.559999942779541, 43.20000076293945)"></path></g> <!----> <!----> <!----> <!----> <!----> <!----> <!----></g></g> <!----></g></g><defs v-gra="od"></defs></svg>